<svg xmlns="http://www.w3.org/2000/svg" viewBox="0 0 200 200"><g transform="translate(100 100) rotate(0) translate(0 65.5) scale(0.46)"><path transform="translate(-456.53 -432.29)" d="M546.76 440.83L546.76 472.71C546.76 483.87 534.27 490.47 525.05 484.18L464.39 442.82C459.67 439.60 453.46 439.60 448.74 442.81L388.00 484.20C378.78 490.49 366.29 483.88 366.29 472.72L366.29 440.83C366.29 436.24 368.56 431.94 372.36 429.35L448.74 377.31C453.46 374.09 459.67 374.09 464.39 377.31L540.70 429.35C544.49 431.94 546.76 436.24 546.76 440.83Z" fill="#F5D33D"/></g><g transform="translate(100 100) rotate(72) translate(0 65.5) scale(0.46)"><path transform="translate(-456.53 -432.29)" d="M546.76 440.83L546.76 472.71C546.76 483.87 534.27 490.47 525.05 484.18L464.39 442.82C459.67 439.60 453.46 439.60 448.74 442.81L388.00 484.20C378.78 490.49 366.29 483.88 366.29 472.72L366.29 440.83C366.29 436.24 368.56 431.94 372.36 429.35L448.74 377.31C453.46 374.09 459.67 374.09 464.39 377.31L540.70 429.35C544.49 431.94 546.76 436.24 546.76 440.83Z" fill="#0FB9F2"/></g><g transform="translate(100 100) rotate(144) translate(0 65.5) scale(0.46)"><path transform="translate(-456.53 -432.29)" d="M546.76 440.83L546.76 472.71C546.76 483.87 534.27 490.47 525.05 484.18L464.39 442.82C459.67 439.60 453.46 439.60 448.74 442.81L388.00 484.20C378.78 490.49 366.29 483.88 366.29 472.72L366.29 440.83C366.29 436.24 368.56 431.94 372.36 429.35L448.74 377.31C453.46 374.09 459.67 374.09 464.39 377.31L540.70 429.35C544.49 431.94 546.76 436.24 546.76 440.83Z" fill="#2EE6C8"/></g><g transform="translate(100 100) rotate(216) translate(0 65.5) scale(0.46)"><path transform="translate(-456.53 -432.29)" d="M546.76 440.83L546.76 472.71C546.76 483.87 534.27 490.47 525.05 484.18L464.39 442.82C459.67 439.60 453.46 439.60 448.74 442.81L388.00 484.20C378.78 490.49 366.29 483.88 366.29 472.72L366.29 440.83C366.29 436.24 368.56 431.94 372.36 429.35L448.74 377.31C453.46 374.09 459.67 374.09 464.39 377.31L540.70 429.35C544.49 431.94 546.76 436.24 546.76 440.83Z" fill="#8B5CF6"/></g><g transform="translate(100 100) rotate(288) translate(0 65.5) scale(0.46)"><path transform="translate(-456.53 -432.29)" d="M546.76 440.83L546.76 472.71C546.76 483.87 534.27 490.47 525.05 484.18L464.39 442.82C459.67 439.60 453.46 439.60 448.74 442.81L388.00 484.20C378.78 490.49 366.29 483.88 366.29 472.72L366.29 440.83C366.29 436.24 368.56 431.94 372.36 429.35L448.74 377.31C453.46 374.09 459.67 374.09 464.39 377.31L540.70 429.35C544.49 431.94 546.76 436.24 546.76 440.83Z" fill="#F468A8"/></g></svg>